<svg id="Capa_1" data-name="Capa 1" xmlns="http://www.w3.org/2000/svg" viewBox="0 0 460.9 268.59"><defs><style>.cls-1{stroke:#000;stroke-miterlimit:10;}</style></defs><title>LogoProyecto</title><path d="M424.29,403c3.52-18,5.37-35.77-12.35-35.77-10.81,0-18.65,5.11-21.15,18.83-2.79,15.32,4.42,21.24,13.17,28.77,9.16,7.8,26,22.85,33.09,33.07,8.74,12.64,10,24.74,6.8,42.22-7,38.18-32.22,58.07-63.74,58.07-38.66,0-47.86-25.27-41.29-61.3l2.69-14.79h32.22l-2.16,11.83c-4.27,19.63-1.8,33.88,14.08,33.88,13.57,0,21.54-8.33,24.33-23.66,2.16-11.83-1-19.9-8-26.62-14-15.33-32.94-26.35-42.38-46.52a57.27,57.27,0,0,1-2.65-30.92c6.28-34.42,26.28-53.24,60.33-53.24,51.32,0,41.51,46.25,38.11,66.15Z" transform="translate(-336.87 -336.83)"/><path d="M582.67,458.27l-7.16,37.85c-1.09,7,.09,13,7.91,13,11.5,0,13.6-9.85,15.61-20.49l28.23-149.35h32.21L632.66,481.09c-2.49,13.22-5.15,32.15-17.86,44.59-11.59,11.41-26.1,12.71-41.75,12.71-11.51,0-23.46-4.93-29.36-20-2.59-7,2.46-42.26,6.76-60.15Z" transform="translate(-336.87 -336.83)"/><path d="M557.85,417l6.78-35.5c1-7-.08-13-7.63-13-11.09,0-13.11,9.85-15,20.48L514.73,538.39H483.66l25.85-141.84c2.41-13.22,5-32.15,17.23-44.59,11.18-11.41,25.17-12.71,40.26-12.71,11.1,0,22.63,4.92,28.32,20,2.5,7-2.26,39.91-6.41,57.8Z" transform="translate(-336.87 -336.83)"/><path d="M668.27,547l78-201.67h43.49L792.07,547H757.55l.8-51.09H720.61L702.78,547Zm62.79-80.67h27.62l1.7-57.27c.1-9.41,1.08-18.55,1.87-28,.6-4.57,1-9.14,1.3-13.44h-.46c-1.24,4.3-2.54,8.87-3.6,13.44-2.64,9.42-5,18.56-8.32,28Z" transform="translate(-336.87 -336.83)"/><path d="M493.51,575.5l.45,4.73h-.45a6,6,0,0,0-2.57-3.06,8.14,8.14,0,0,0-4-.93,8.62,8.62,0,0,0-3.55.7,5.42,5.42,0,0,0-2.5,2.24A7.49,7.49,0,0,0,480,583a6.13,6.13,0,0,0,.86,3.27,5.48,5.48,0,0,0,2.58,2.12,10,10,0,0,0,3.94.74,9.33,9.33,0,0,0,3.39-.58,10.52,10.52,0,0,0,3.22-2.3l.45.2a9,9,0,0,1-3.46,2.72,11.72,11.72,0,0,1-4.69.86q-4.9,0-7.59-2.56a6,6,0,0,1-2-4.49,6.2,6.2,0,0,1,1.32-3.83,8.56,8.56,0,0,1,3.65-2.7,13.07,13.07,0,0,1,5.06-1,12.59,12.59,0,0,1,4.22.74,3,3,0,0,0,.87.22,1.23,1.23,0,0,0,.69-.19,1.47,1.47,0,0,0,.53-.77Z" transform="translate(-336.87 -336.83)"/><path d="M506.34,575.5a10.91,10.91,0,0,1,6.65,2.06,6.14,6.14,0,0,1,2.81,5.13A6.31,6.31,0,0,1,513,588a12.41,12.41,0,0,1-13.71,0,6.29,6.29,0,0,1,.43-10.69A11.88,11.88,0,0,1,506.34,575.5Zm-.28.75a5.82,5.82,0,0,0-6.24,6.43,6.64,6.64,0,0,0,2.07,5.24,6.09,6.09,0,0,0,4.19,1.39,6.83,6.83,0,0,0,4.58-1.53q1.81-1.51,1.81-4.82a6.72,6.72,0,0,0-2-5.32A6.49,6.49,0,0,0,506.06,576.25Z" transform="translate(-336.87 -336.83)"/><path d="M534,585.88l.48.07-1.68,3.77H517.55v-.38h.74a2.39,2.39,0,0,0,1.79-.57,2.51,2.51,0,0,0,.3-1.52v-9c0-.87-.13-1.41-.4-1.63a2.68,2.68,0,0,0-1.69-.45h-.74v-.38h8.93v.38a7.7,7.7,0,0,0-2.21.2,1.71,1.71,0,0,0-.86.55,3.15,3.15,0,0,0-.23,1.56v8.74a2.05,2.05,0,0,0,.23,1.17,1.05,1.05,0,0,0,.54.32,13.25,13.25,0,0,0,2.27.1h1.43a14.36,14.36,0,0,0,3.19-.24,4.3,4.3,0,0,0,1.67-.83A6.59,6.59,0,0,0,534,585.88Z" transform="translate(-336.87 -336.83)"/><path d="M552.21,585.88l.49.07L551,589.72H535.74v-.38h.74a2.39,2.39,0,0,0,1.79-.57,2.49,2.49,0,0,0,.31-1.52v-9c0-.87-.14-1.41-.41-1.63a2.68,2.68,0,0,0-1.69-.45h-.74v-.38h8.93v.38a7.58,7.58,0,0,0-2.2.2,1.7,1.7,0,0,0-.87.55,3.15,3.15,0,0,0-.23,1.56v8.74a2.05,2.05,0,0,0,.23,1.17,1.05,1.05,0,0,0,.54.32,13.25,13.25,0,0,0,2.27.1h1.44a14.32,14.32,0,0,0,3.18-.24,4.3,4.3,0,0,0,1.67-.83A6.59,6.59,0,0,0,552.21,585.88Z" transform="translate(-336.87 -336.83)"/><path d="M559.56,576.58v5.49h4.33a4.66,4.66,0,0,0,2.25-.36,2,2,0,0,0,.85-1.66h.54v4.84H567a4,4,0,0,0-.41-1.3,1.64,1.64,0,0,0-.86-.56,5.84,5.84,0,0,0-1.83-.21h-4.33v4.58a3.37,3.37,0,0,0,.11,1.13.79.79,0,0,0,.41.31,3.39,3.39,0,0,0,1.11.12h3.34a12.7,12.7,0,0,0,2.43-.16,4.08,4.08,0,0,0,1.45-.65,8.47,8.47,0,0,0,1.85-1.91h.58l-1.7,3.48H554v-.38h.69a3.91,3.91,0,0,0,1.33-.23,1.06,1.06,0,0,0,.63-.5,3.42,3.42,0,0,0,.17-1.34v-9c0-.88-.13-1.43-.38-1.63a2.83,2.83,0,0,0-1.75-.41H554v-.38h15.19l.22,3h-.57a3.92,3.92,0,0,0-.67-1.5,2.3,2.3,0,0,0-1.1-.63,9.45,9.45,0,0,0-2-.15Z" transform="translate(-336.87 -336.83)"/><path d="M589.45,575.5l.46,4.73h-.46a6,6,0,0,0-2.57-3.06,8.11,8.11,0,0,0-4-.93,8.65,8.65,0,0,0-3.55.7,5.35,5.35,0,0,0-2.49,2.24,7.39,7.39,0,0,0-.91,3.83,6,6,0,0,0,.86,3.27,5.43,5.43,0,0,0,2.58,2.12,9.94,9.94,0,0,0,3.93.74,9.33,9.33,0,0,0,3.39-.58,10.55,10.55,0,0,0,3.23-2.3l.45.2a9.14,9.14,0,0,1-3.46,2.72,11.81,11.81,0,0,1-4.7.86q-4.91,0-7.59-2.56a6,6,0,0,1-2-4.49,6.15,6.15,0,0,1,1.33-3.83,8.52,8.52,0,0,1,3.64-2.7,13.08,13.08,0,0,1,5.07-1,12.53,12.53,0,0,1,4.21.74,2.93,2.93,0,0,0,.88.22,1.2,1.2,0,0,0,.68-.19,1.55,1.55,0,0,0,.54-.77Z" transform="translate(-336.87 -336.83)"/><path d="M608.62,575.82l.22,3.26h-.55a3.1,3.1,0,0,0-.44-1.23,2.62,2.62,0,0,0-1.2-.88,5.68,5.68,0,0,0-2-.28H601.9v10.62c0,.86.13,1.39.4,1.6a2.71,2.71,0,0,0,1.7.43h.68v.38h-8.36v-.38h.7a2.4,2.4,0,0,0,1.77-.53,2.35,2.35,0,0,0,.32-1.5V576.69h-2.37a9.65,9.65,0,0,0-2,.14,2.71,2.71,0,0,0-1.3.75,2.47,2.47,0,0,0-.64,1.5h-.55l.23-3.26Z" transform="translate(-336.87 -336.83)"/><path d="M618.77,589.34v.38h-8.45v-.38h.7a2.56,2.56,0,0,0,1.77-.5c.24-.22.35-.75.35-1.58v-9a3.28,3.28,0,0,0-.19-1.4,1.15,1.15,0,0,0-.59-.44,3.78,3.78,0,0,0-1.34-.24h-.7v-.38h8.45v.38h-.71a2.54,2.54,0,0,0-1.76.5,2.27,2.27,0,0,0-.37,1.58v9a3.45,3.45,0,0,0,.19,1.4,1.22,1.22,0,0,0,.61.44,3.69,3.69,0,0,0,1.33.24Z" transform="translate(-336.87 -336.83)"/><path d="M630.39,575.5a10.91,10.91,0,0,1,6.65,2.06,6.14,6.14,0,0,1,2.81,5.13A6.31,6.31,0,0,1,637,588a12.41,12.41,0,0,1-13.71,0,6.29,6.29,0,0,1,.43-10.69A11.88,11.88,0,0,1,630.39,575.5Zm-.28.75a5.82,5.82,0,0,0-6.24,6.43,6.64,6.64,0,0,0,2.07,5.24,6.09,6.09,0,0,0,4.19,1.39,6.83,6.83,0,0,0,4.58-1.53q1.81-1.51,1.81-4.82a6.72,6.72,0,0,0-2-5.32A6.49,6.49,0,0,0,630.11,576.25Z" transform="translate(-336.87 -336.83)"/><path d="M640.61,575.82H646L658,586.25v-8c0-.86-.14-1.39-.41-1.6a2.71,2.71,0,0,0-1.7-.43h-.69v-.38h6.87v.38h-.7a2.46,2.46,0,0,0-1.78.53,2.35,2.35,0,0,0-.32,1.5V590h-.52l-13-11.2v8.56c0,.86.13,1.39.39,1.6a2.76,2.76,0,0,0,1.71.43h.69v.38H641.7v-.38h.68a2.43,2.43,0,0,0,1.79-.53,2.29,2.29,0,0,0,.32-1.5v-9.67a8,8,0,0,0-1.3-.93,5.82,5.82,0,0,0-1.3-.42,6.67,6.67,0,0,0-1.28-.09Z" transform="translate(-336.87 -336.83)"/><line class="cls-1" x1="6.58" y1="262.34" x2="460.9" y2="262.34"/><line class="cls-1" x1="34.42" y1="268.09" x2="433.06" y2="268.09"/></svg>